# xmcd
#
# Track frame offsets:
# 150
# 20147
# 37361
# 59992
# 76423
# 93043
# 109558
# 130906
# 149627
#
# Disc length: 2236 seconds
#
# Revision: 0
# Processed by: cddbd v1.5.2PL0 Copyright (c) Steve Scherf et al.
# Submitted via: plextools 2.35
#
DISCID=8508ba09
DTITLE=Carey Sims - Wheels
DYEAR=2007
DGENRE=Country
TTITLE0=Carey Sims - Kiss The Wind
TTITLE1=Carey Sims - Midnight Comes Along
TTITLE2=Carey Sims - Heartbreak Row
TTITLE3=Carey Sims - What's In A Name
TTITLE4=Carey Sims - Wheels
TTITLE5=Carey Sims - Lazy Afernoon
TTITLE6=Carey Sims - Praying For Time
TTITLE7=Carey Sims - Dirty Little Town
TTITLE8=Carey Sims - By The Morning
EXTD=
EXTT0=
EXTT1=
EXTT2=
EXTT3=
EXTT4=
EXTT5=
EXTT6=
EXTT7=
EXTT8=
PLAYORDER=
